<svg width="402" height="153" viewBox="0 0 402 153" fill="none" xmlns="http://www.w3.org/2000/svg">
<g clip-path="url(#clip0_499_11433)">
<path d="M218.229 42.8952L250.313 31.1926V0L211.473 30.0801C209.03 31.9414 207.528 33.792 207.528 36.5839C207.528 41.4083 212.219 45.1309 218.219 42.8952H218.229ZM207.528 151.149H228.164V52.7365H207.528V151.149ZM113.893 151.149H134.529V113.271H186.124V94.701H134.529C134.15 79.2866 144.657 70.0015 159.11 70.0015C166.991 70.0015 173.747 72.7828 178.817 76.3128L191.951 61.6471C182.384 54.5871 172.06 50.8752 159.672 50.8752C132.464 50.8752 113.893 68.6965 113.893 94.701V151.149ZM21.0144 91.5454C24.0195 78.1741 34.7104 70.0015 49.5308 70.0015C64.3511 70.0015 74.4907 78.1741 76.3608 91.5454H21.0144ZM97.5698 99.8998C97.5698 77.2435 81.0523 50.8752 49.5308 50.8752C21.771 50.8752 0 71.4884 0 101.194C0 130.9 21.9548 153 51.6063 153C69.9938 153 84.8141 144.271 94.5754 131.467L80.1335 119.764C72.9989 129.049 63.2485 133.874 51.0441 133.874C34.905 133.874 24.0195 124.77 21.0252 110.105H87.3977C93.7755 110.105 97.5914 107.131 97.5914 99.8891" fill="#F37021"/>
<path d="M310.654 122.16H309.205L321.258 151.149H327.16L314.264 121.326C313.54 119.657 312.34 118.342 310.048 118.342C307.994 118.342 306.557 119.411 305.713 121.326L292.817 151.149H298.601L310.654 122.16ZM260.625 151.149H266.052V118.342H260.625V151.149ZM276.894 135.767C282.678 135.767 287.142 131.831 287.142 126.578C287.142 121.326 283.164 118.342 277.143 118.342H263.036V123.112H276.419C279.435 123.112 281.478 124.781 281.478 127.53C281.478 130.279 279.554 132.301 276.894 132.301V135.767ZM333.311 151.149H338.737L338.5 121.572L335.603 122.642L354.769 148.882C355.85 150.433 357.298 151.149 358.628 151.149C360.433 151.149 361.762 149.598 361.762 147.566V118.342H356.336L356.574 147.93L359.471 146.86L340.305 120.62C339.224 119.187 338.251 118.352 336.565 118.352C334.759 118.352 333.311 119.903 333.311 121.936V151.16V151.149ZM298.957 144.592H321.139V139.821H298.957V144.592ZM395.024 151.149H401.9L386.593 134.687L401.781 118.342H394.787L382.247 132.055C380.68 133.842 380.561 135.639 382.247 137.425L395.024 151.139V151.149ZM372.843 151.149H378.269V118.342H372.843V151.149ZM277.013 151.149C284.364 151.149 288.461 147.566 288.461 142.089C288.461 135.767 282.678 132.312 276.884 132.312H263.025V137.083H277.608C280.624 137.083 282.667 138.634 282.667 141.372C282.667 144.474 280.137 146.379 276.516 146.379H263.014V151.149H277.013Z" fill="#F37021"/>
</g>
<defs>
<clipPath id="clip0_499_11433">
<rect width="402" height="153" fill="white"/>
</clipPath>
</defs>
</svg>
