<svg xmlns="http://www.w3.org/2000/svg" fill="#1FBFAE" width="100%" height="100%" viewBox="0 0 119.52 79"><path d="M76.64 57.46c-.5-.12-3.08-.75-3.08 1V74.4a4.61 4.61 0 009.21 0V65a7.68 7.68 0 00-6.13-7.54zM20.69 59.16c-.31-.06-2.34-.12-2.34 1.23v14a4.61 4.61 0 009.21 0v-7.57a7.71 7.71 0 00-6.87-7.66z"/><path d="M112.16 48.32q-5.43-.91-11-1.69V20.71v-5.05a8.75 8.75 0 00-8.75-8.76H82.29a8.75 8.75 0 00-8.75 8.75v8.8c-7.51 2.29-17.43 3-27.61-2.73V13.8 8.75A8.75 8.75 0 0037.18 0h-10.1a8.75 8.75 0 00-8.75 8.75v38.47q-8 1.2-16 2.82A3 3 0 000 53a5.66 5.66 0 006.81 5.5c7.18-1.41 14.48-2.58 21.78-3.44a6.45 6.45 0 005.77-6.44V47.1a1.69 1.69 0 00-1.84-1.66q-2.49.25-5 .55V13.8a4.61 4.61 0 019.2 0v60.59a4.6 4.6 0 009.2 0V53.58a295.307 295.307 0 0136.63.32 6.46 6.46 0 006.93-6.5v-.67A1.66 1.66 0 0088 45.07q-2.63-.21-5.28-.38V33.15a1.37 1.37 0 00-1.84-1.28c-1 .36-2 .7-3.11 1a5.86 5.86 0 00-4.26 5.61v5.7Q67.66 44 61.72 44c-5.27 0-10.54.14-15.77.42v-15.8a39.14 39.14 0 0016.5 3.63 42.33 42.33 0 007.82-.74 52.05 52.05 0 0017.42-6.86 3.05 3.05 0 001-4.21l-.18-.26a3.06 3.06 0 00-4-.71c-.48.3-1 .64-1.65 1a4.61 4.61 0 019.19.24v53.68a4.6 4.6 0 009.2 0V55.91q8.23 1.18 16.32 2.79a1.72 1.72 0 002-1.66 8.88 8.88 0 00-7.41-8.72z"/><path d="M31 12.69a3 3 0 00-.44 4.31l.12.14q.78.85 1.56 1.63a1.21 1.21 0 002.06-.85v-3.68a2 2 0 00-3.3-1.55z"/></svg>
